<?xml version="1.0" encoding="UTF-8" standalone="no"?>
<svg
   xmlns:dc="http://purl.org/dc/elements/1.1/"
   xmlns:cc="http://creativecommons.org/ns#"
   xmlns:rdf="http://www.w3.org/1999/02/22-rdf-syntax-ns#"
   xmlns:svg="http://www.w3.org/2000/svg"
   xmlns="http://www.w3.org/2000/svg"
   xmlns:sodipodi="http://sodipodi.sourceforge.net/DTD/sodipodi-0.dtd"
   xmlns:inkscape="http://www.inkscape.org/namespaces/inkscape"
   width="195.25424"
   height="184.66995"
   viewBox="0 0 195.25424 184.66995"
   id="svg17"
   class="a"
   version="1.1"
   sodipodi:docname="icon.svg"
   inkscape:version="1.0.1 (3bc2e813f5, 2020-09-07)">
  <sodipodi:namedview
     pagecolor="#ffffff"
     bordercolor="#666666"
     borderopacity="1"
     objecttolerance="10"
     gridtolerance="10"
     guidetolerance="10"
     inkscape:pageopacity="0"
     inkscape:pageshadow="2"
     inkscape:window-width="1822"
     inkscape:window-height="1051"
     id="namedview14"
     showgrid="false"
     inkscape:zoom="4.05"
     inkscape:cx="99.21243"
     inkscape:cy="92.17089"
     inkscape:window-x="89"
     inkscape:window-y="-9"
     inkscape:window-maximized="1"
     inkscape:current-layer="svg17" />
  <style
     id="style2">.a{version:1.1;}.b{clip-path:url(#a);}.c{fill:#062949;}.d{fill:#fff;}</style>
  <metadata
     id="metadata21"
     class="undefined">
    <rdf:RDF>
      <cc:Work
         rdf:about="">
        <dc:format>image/svg+xml</dc:format>
        <dc:type
           rdf:resource="http://purl.org/dc/dcmitype/StillImage" />
      </cc:Work>
    </rdf:RDF>
  </metadata>
  <defs
     id="defs5"
     class="undefined">
    <clipPath
       id="a"
       class="undefined">
      <path
         d="M 0,0 H 2611 V 566.9 H 0 Z"
         id="path2"
         class="undefined" />
    </clipPath>
  </defs>
  <g
     transform="matrix(0.34375265,0,0,-0.32575403,-5.1562897,184.66996)"
     id="g15"
     class="b"
     clip-path="url(#a)">
    <path
       d="M 67.5,122 C 118.5,49.2 203,1.4 298.5,1.4 c 95.6,0 180.2,47.9 231.2,120.8 -67.2,21.7 -147.2,34.2 -230.8,34.2 -83.9,0 -164.1,-12.6 -231.5,-34.5"
       id="path7"
       class="c" />
    <path
       d="m 537.9,134.6 v 0 c 27,43.2 42.7,94.3 42.7,148.9 0,155.5 -126.5,282.1 -282,282.1 -155.5,0 -282.1,-126.5 -282.1,-282.1 0,-54.8 15.8,-106 42.9,-149.3 65.8,30.1 147.5,49.5 239.5,49.5 91.7,0 173.2,-19.2 239,-49.1"
       id="path9"
       class="c" />
    <path
       d="m 537.9,134.6 c -65.8,29.9 -147.2,49.1 -239,49.1 -92.1,0 -173.7,-19.4 -239.5,-49.5 a 283.8,283.8 0 0 1 8.1,-12.1 c 67.4,21.9 147.5,34.5 231.5,34.5 83.6,0 163.6,-12.5 230.8,-34.2 a 273.5,273.5 0 0 1 8.2,12.3 v 0 m -239.2,75.2 c 57.2,0 115.4,-8.7 173.4,-25.7 h 0.1 c 0,0 -54.6,32.5 -102.3,45.1 L 522.6,243.9 366,246.3 472.8,307.6 355.6,271.8 479.5,403.3 343.1,288.1 392.6,398.8 327.1,301.3 360.4,505.8 312,306.6 298.8,465.7 285.6,306.6 237.3,505.8 270.6,301.3 205.1,398.8 254.6,288.1 118.2,403.3 242.1,271.8 124.9,307.6 231.7,246.4 75.1,244 227.7,229.4 C 179.9,216.6 125.3,184 125.3,184 h 0.1 c 58,17 116.2,25.7 173.4,25.7"
       id="path11"
       class="d" />
    <path
       d="m 24.7,283.5 c 0,151 122.8,273.8 273.8,273.8 151,0 273.8,-122.8 273.8,-273.8 C 572.3,132.5 449.5,9.7 298.5,9.7 147.5,9.7 24.7,132.5 24.7,283.5 Z m -9.7,0 C 15,127.2 142.2,0 298.5,0 454.8,0 582,127.2 582,283.5 582,439.8 454.8,566.9 298.5,566.9 142.2,566.9 15,439.8 15,283.5"
       id="path13"
       class="d" />
  </g>
</svg>
